<svg xmlns="http://www.w3.org/2000/svg" viewBox="0 0 7637 700.8">
  <defs>
    <style>
      .cls-1, .cls-11, .cls-12, .cls-13, .cls-15, .cls-16, .cls-18, .cls-19, .cls-20, .cls-3, .cls-5, .cls-6, .cls-8, .cls-9 {
        fill: #fff;
      }

      .cls-2 {
        fill: #73c400;
      }

      .cls-3, .cls-5 {
        stroke: red;
      }

      .cls-11, .cls-12, .cls-13, .cls-15, .cls-16, .cls-18, .cls-19, .cls-20, .cls-3, .cls-5, .cls-6, .cls-8, .cls-9 {
        stroke-miterlimit: 10;
      }

      .cls-3 {
        stroke-width: 11.72px;
      }

      .cls-4 {
        fill: red;
      }

      .cls-5 {
        stroke-width: 23.44px;
      }

      .cls-6 {
        stroke: #ff6700;
        stroke-width: 23.93px;
      }

      .cls-7 {
        fill: #ff6700;
      }

      .cls-8 {
        stroke: #507a00;
        stroke-width: 24.43px;
      }

      .cls-9 {
        stroke: #ffe600;
      }

      .cls-15, .cls-9 {
        stroke-width: 37.9px;
      }

      .cls-10 {
        fill: #ffe600;
      }

      .cls-11 {
        stroke: #8200ff;
        stroke-width: 27.35px;
      }

      .cls-12 {
        stroke: #ffda00;
      }

      .cls-12, .cls-13 {
        stroke-width: 26.58px;
      }

      .cls-13 {
        stroke: #ff001f;
      }

      .cls-14 {
        fill: #ff001f;
      }

      .cls-15 {
        stroke: #0019ff;
      }

      .cls-16 {
        stroke: #965123;
        stroke-width: 34.19px;
      }

      .cls-17 {
        fill: #965123;
      }

      .cls-18 {
        stroke: #ff866e;
      }

      .cls-18, .cls-19 {
        stroke-width: 33.51px;
      }

      .cls-19, .cls-20 {
        stroke: #ffb000;
      }

      .cls-20 {
        stroke-width: 24.1px;
      }
		
		
		
			#AppleShine, #OrangeSpots, #PearShine, #LemonSpots, #GrapeShine, #bananaShine, #strawberrySpots, #blueberryShine, #coconutSpots, #PeachFuzz, #PineappleLines  {
	display: block;
	}
	@media screen and (max-width: 400px){
	   
	    #AppleShine, #OrangeSpots, #PearShine, #LemonSpots, #GrapeShine, #bananaShine, #strawberrySpots, #blueberryShine, #coconutSpots, #PeachFuzz, #PineappleLines  {
	       display: none;
	   }
	}
	
<!-- Attempted to add hover transition
#Apple, #Orange, #Pear, #Lemon, #Strawberry, #Peach, #Blueberry, #Coconut, #Pineapple, #Grape {
    -webkit-transition: width 2s;
    transition: width 2s;
}
		#Apple:hover {
    width: 200px;
}
-->
		
    </style>
  </defs>
  <title>icons</title>
  <g id="Apple">
    <g id="appleRing">
      <g id="circle">
        <path class="cls-1" d="M394.27,741.63A326.32,326.32,0,0,1,163.53,184.56,326.32,326.32,0,1,1,625,646.06,324.19,324.19,0,0,1,394.27,741.63Z" transform="translate(-49 -63.2)"/>
        <path class="cls-2" d="M394.27,107.93a306.3,306.3,0,1,1-119.63,24.14,305.42,305.42,0,0,1,119.63-24.14m0-37.9C203.58,70,49,224.62,49,415.31S203.58,760.58,394.27,760.58,739.54,606,739.54,415.31,585,70,394.27,70Z" transform="translate(-49 -63.2)"/>
      </g>
    </g>
    <g id="AppleShine">
      <path class="cls-3" d="M300.51,338.15s-43,58.6-27.35,117.21C273.16,455.36,210.65,377.22,300.51,338.15Z" transform="translate(-49 -63.2)"/>
    </g>
    <g id="AppleShape">
      <g>
        <path class="cls-1" d="M241.24,546.66a162.07,162.07,0,0,1-35.59-146,104.86,104.86,0,0,0-2.18,19.07,113.88,113.88,0,0,0-1.27,22.49,144.74,144.74,0,0,0,19.31,66.12A142.49,142.49,0,0,0,241.24,546.66ZM211.9,381q2-5,4.23-9.85-.7,1.84-1.33,3.72Q213.25,377.85,211.9,381Zm26.9-45.32a162.17,162.17,0,0,1,174.78-50q-3.7.59-7.41,1.4a131.1,131.1,0,0,0-20.35-1.64c-3.48,0-7.13.17-10.88.51-4-.34-7.69-.51-11.26-.51a127.25,127.25,0,0,0-46,8.82,102.31,102.31,0,0,0-32.54,10.31,102.75,102.75,0,0,0-42.7,27.58Q240.54,333.84,238.8,335.63Z" transform="translate(-49 -63.2)"/>
        <path class="cls-4" d="M363,265.87A173.86,173.86,0,1,0,437.19,597a113.27,113.27,0,0,1-27.94,3.58,119,119,0,0,1-31.49-4.2c-2.52.18-5,.3-7.58.3a117.39,117.39,0,0,1-49-10.56c-42.77-9.32-75.48-41.67-88.93-82.65a132.55,132.55,0,0,1-18.34-61.77,101.9,101.9,0,0,1,1.27-20.93,90.65,90.65,0,0,1,10.47-41.36,90.78,90.78,0,0,1,25-39,90.78,90.78,0,0,1,39-25,90.26,90.26,0,0,1,30.93-9.72,116.42,116.42,0,0,1,43.08-8.53c3.83,0,7.58.22,11.29.56,3.6-.36,7.22-.56,10.85-.56A119.67,119.67,0,0,1,406.52,299a112.91,112.91,0,0,1,26.17-3.16,118.65,118.65,0,0,1,35,5.22A172.77,172.77,0,0,0,363,265.87Z" transform="translate(-49 -63.2)"/>
      </g>
      <path class="cls-5" d="M404,293.22S419.67,215.08,392.32,176" transform="translate(-49 -63.2)"/>
      <g>
        <path class="cls-1" d="M524.62,568a139.12,139.12,0,0,0,16.12-18.09,142,142,0,0,0,18.92-19.17A163.43,163.43,0,0,1,524.62,568Zm62.9-121.39c-.25-3.8-.69-7.78-1.37-12.32a145.34,145.34,0,0,0-8-38.79c-.6-2.07-1.26-4.17-2-6.39-13.54-50.52-51.91-87.94-100.51-98.23a128,128,0,0,0-20.93-10.63c75.53,13.77,133,80.06,133,159.51Q587.66,443.17,587.52,446.59Z" transform="translate(-49 -63.2)"/>
        <path class="cls-4" d="M425.53,265.87a173.33,173.33,0,0,0-59.42,10.48,117.94,117.94,0,0,1,36.81,6.57c1.24,0,2.48-.12,3.73-.12a116.74,116.74,0,0,1,64.49,19.1c46.66,9,81.76,45.26,93.77,90.59.74,2.16,1.44,4.35,2.07,6.56a133.51,133.51,0,0,1,7.5,36.46,133,133,0,0,1,1.45,14c1.63,36.43-16.48,69.83-43.78,92.29-22.79,31.29-60.61,52.27-99.47,52.27a118.94,118.94,0,0,1-16.19-1.14,115.18,115.18,0,0,1-37.2,6.35,119,119,0,0,1-32-4.34,173.82,173.82,0,1,0,78.21-329Z" transform="translate(-49 -63.2)"/>
      </g>
    </g>
  </g>
  <g id="Orange">
    <g id="orangeRing">
      <g id="circle-2" data-name="circle">
        <path class="cls-1" d="M1166.86,741.63A326.32,326.32,0,0,1,936.11,184.56a326.32,326.32,0,1,1,461.49,461.49A324.19,324.19,0,0,1,1166.86,741.63Z" transform="translate(-49 -63.2)"/>
        <path class="cls-2" d="M1166.86,107.93a306.3,306.3,0,1,1-119.63,24.14,305.42,305.42,0,0,1,119.63-24.14m0-37.9C976.17,70,821.59,224.62,821.59,415.31s154.58,345.27,345.27,345.27S1512.13,606,1512.13,415.31,1357.55,70,1166.86,70Z" transform="translate(-49 -63.2)"/>
      </g>
    </g>
    <g id="OrangeShape">
      <circle class="cls-6" cx="1122.99" cy="357.24" r="181.18"/>
    </g>
    <g id="OrangeSpots">
      <circle class="cls-7" cx="1059.74" cy="263.23" r="13.67"/>
      <circle class="cls-7" cx="1104.19" cy="304.25" r="13.67"/>
      <circle class="cls-7" cx="1049.49" cy="311.09" r="13.67"/>
      <circle class="cls-7" cx="1179.39" cy="440.99" r="13.67"/>
      <circle class="cls-7" cx="1148.63" cy="406.81" r="13.67"/>
      <circle class="cls-7" cx="1196.49" cy="396.55" r="13.67"/>
    </g>
  </g>
  <g id="Pear">
    <g id="pearRing">
      <g id="circle-3" data-name="circle">
        <path class="cls-1" d="M1936,741.63a326.32,326.32,0,0,1-230.75-557.07,326.32,326.32,0,1,1,461.49,461.49A324.19,324.19,0,0,1,1936,741.63Z" transform="translate(-49 -63.2)"/>
        <path class="cls-2" d="M1936,107.93a306.3,306.3,0,1,1-119.63,24.14A305.42,305.42,0,0,1,1936,107.93m0-37.9c-190.69,0-345.27,154.58-345.27,345.27S1745.34,760.58,1936,760.58,2281.3,606,2281.3,415.31,2126.72,70,1936,70Z" transform="translate(-49 -63.2)"/>
      </g>
    </g>
    <g id="PearShape">
      <path class="cls-8" d="M1924.35,356.21a101.58,101.58,0,0,1,31.38,8.91,98.81,98.81,0,0,1,23-2.8,103.53,103.53,0,0,1,33.16,5.39,167.51,167.51,0,0,0-121.37-13.25,96.53,96.53,0,0,1,11.3-.69A104.81,104.81,0,0,1,1924.35,356.21Z" transform="translate(-49 -63.2)"/>
      <path class="cls-8" d="M2072.95,422.12a115.61,115.61,0,0,1,9.54,28.11,115.45,115.45,0,0,1,10.7,42.29,117.43,117.43,0,0,1,3.51,23.64c.84,18.7-4.3,36.48-13.49,52A101.37,101.37,0,0,1,2064,604.83c-16,38.67-56.78,66.87-98.94,66.87-3.17,0-6.27-.2-9.34-.49-3.14.31-6.29.49-9.46.49-2,0-4-.06-5.91-.17-1.45.07-2.89.17-4.35.17a105.06,105.06,0,0,1-21.19-2.14,101.71,101.71,0,0,1-49.27-17.67,104.24,104.24,0,0,1-39.73-29.42,108.07,108.07,0,0,1-19.07-20.53,114.5,114.5,0,0,1-28-70.4c-.12-2.74-.07-5.45.07-8.14a117.86,117.86,0,0,1-1.78-15.79,89.91,89.91,0,0,1,3.39-28.67c.6-21.68,9.1-41.87,22.46-58.34a103.31,103.31,0,0,1,13.84-23.75,167.49,167.49,0,1,0,256.18,25.25Z" transform="translate(-49 -63.2)"/>
      <path class="cls-8" d="M1815.39,398.22s74.49-182.89,95-203.4,82-34.19,106,27.35,45.4,167.51,62,208.53" transform="translate(-49 -63.2)"/>
      <path class="cls-8" d="M1958.44,177.53s6.65-30.58-.19-54.51" transform="translate(-49 -63.2)"/>
    </g>
    <g id="PearShine">
      <path class="cls-8" d="M1869.37,440.95s-17.09,102.56-6.84,136.74C1862.53,577.69,1763.39,512.74,1869.37,440.95Z" transform="translate(-49 -63.2)"/>
    </g>
  </g>
  <g id="Lemon">
    <g id="LemonRing">
      <g id="circle-4" data-name="circle">
        <path class="cls-1" d="M2708.62,741.63a326.32,326.32,0,0,1-230.75-557.07,326.32,326.32,0,1,1,461.49,461.49A324.19,324.19,0,0,1,2708.62,741.63Z" transform="translate(-49 -63.2)"/>
        <path class="cls-2" d="M2708.62,107.93A306.3,306.3,0,1,1,2589,132.07a305.42,305.42,0,0,1,119.63-24.14m0-37.9c-190.69,0-345.27,154.58-345.27,345.27s154.58,345.27,345.27,345.27S3053.89,606,3053.89,415.31,2899.31,70,2708.62,70Z" transform="translate(-49 -63.2)"/>
      </g>
    </g>
    <g id="LemonShape">
      <path class="cls-9" d="M2581.48,570.5c3.23,13.15,5.78,20.86,5.78,20.86l5.42-6.57A109.94,109.94,0,0,1,2581.48,570.5Z" transform="translate(-49 -63.2)"/>
      <path class="cls-9" d="M2568.47,476.36a99.22,99.22,0,0,1,7.9-16.36c0-2.78.2-5.53.46-8.26-.17-1.88-.31-3.77-.4-5.67q-.16-3.52,0-7a117.64,117.64,0,0,1-2.25-18.08c-1.29-28.73,11.46-55.32,31.49-74.68,8.49-40.84,44.47-73.84,85.26-81.84,17.11-11.2,37.19-17.82,57.6-17.82a105.71,105.71,0,0,1,16.84,1.35,100.11,100.11,0,0,1,33.3-5.91,103.42,103.42,0,0,1,22.07,2.36,98.46,98.46,0,0,1,21.23-2.36,103.86,103.86,0,0,1,29.94,4.37l6-7.22C2609.33,213.06,2565.26,363.9,2568.47,476.36Z" transform="translate(-49 -63.2)"/>
      <path class="cls-9" d="M2898.35,242.67S2953,591.36,2587.26,598.2" transform="translate(-49 -63.2)"/>
    </g>
    <g id="LemonSpots">
      <circle class="cls-10" cx="2692.09" cy="258.1" r="18.8"/>
      <circle class="cls-10" cx="2633.98" cy="278.61" r="18.8"/>
      <circle class="cls-10" cx="2675" cy="312.8" r="18.8"/>
    </g>
  </g>
  <g id="Grapes">
    <g id="GrapeRing">
      <g id="circle-5" data-name="circle">
        <path class="cls-1" d="M2708.62,741.63a326.32,326.32,0,0,1-230.75-557.07,326.32,326.32,0,1,1,461.49,461.49A324.19,324.19,0,0,1,2708.62,741.63Z" transform="translate(-49 -63.2)"/>
        <path class="cls-2" d="M2708.62,107.93A306.3,306.3,0,1,1,2589,132.07a305.42,305.42,0,0,1,119.63-24.14m0-37.9c-190.69,0-345.27,154.58-345.27,345.27s154.58,345.27,345.27,345.27S3053.89,606,3053.89,415.31,2899.31,70,2708.62,70Z" transform="translate(-49 -63.2)"/>
      </g>
    </g>
    <g id="grapeShape">
      <circle class="cls-11" cx="2671.58" cy="531.58" r="71.79"/>
      <circle class="cls-11" cx="2734.83" cy="423.9" r="71.79"/>
      <circle class="cls-11" cx="2601.5" cy="423.9" r="71.79"/>
      <circle class="cls-11" cx="2779.27" cy="304.25" r="71.79"/>
      <circle class="cls-11" cx="2666.45" cy="300.83" r="71.79"/>
      <circle class="cls-11" cx="2539.97" cy="300.83" r="71.79"/>
      <path class="cls-11" d="M2715.45,292.24s-71.79-136.74-140.16-129.9C2575.29,162.34,2541.11,278.57,2715.45,292.24Z" transform="translate(-49 -63.2)"/>
      <path class="cls-11" d="M2730.84,292.24s12-106,97.43-116.23C2828.27,176,2852.2,264.89,2730.84,292.24Z" transform="translate(-49 -63.2)"/>
    </g>
    <g id="GrapeShine">
      <path class="cls-11" d="M2630,459.75s-17.09,27.35,0,47.86" transform="translate(-49 -63.2)"/>
      <path class="cls-11" d="M2855.61,340.1s13.67,23.93,0,34.19" transform="translate(-49 -63.2)"/>
    </g>
  </g>
  <g id="Bananas">
    <g id="bananaRing">
      <g id="circle-6" data-name="circle">
        <path class="cls-1" d="M3460.69,741.63a326.32,326.32,0,0,1-230.75-557.07,326.32,326.32,0,1,1,461.49,461.49A324.19,324.19,0,0,1,3460.69,741.63Z" transform="translate(-49 -63.2)"/>
        <path class="cls-2" d="M3460.69,107.93a306.3,306.3,0,1,1-119.63,24.14,305.42,305.42,0,0,1,119.63-24.14m0-37.9C3270,70,3115.42,224.62,3115.42,415.31S3270,760.58,3460.69,760.58,3806,606,3806,415.31,3651.38,70,3460.69,70Z" transform="translate(-49 -63.2)"/>
      </g>
    </g>
    <g id="bananaShape">
      <path class="cls-12" d="M3626.37,264s-152.44,153-416.79,71.81C3209.58,335.79,3444.52,677.28,3626.37,264Z" transform="translate(-49 -63.2)"/>
      <path class="cls-12" d="M3609.71,255.7S3526.61,455,3251.23,480.1C3251.23,480.1,3598.06,707.09,3609.71,255.7Z" transform="translate(-49 -63.2)"/>
      <path class="cls-12" d="M3621.25,254.64s3.32,215.92-239.18,348.8C3382.07,603.44,3790.67,673.2,3621.25,254.64Z" transform="translate(-49 -63.2)"/>
    </g>
    <g id="bananaShine">
      <path class="cls-12" d="M3624.78,360.61S3631.62,470,3553,538.38" transform="translate(-49 -63.2)"/>
      <path class="cls-12" d="M3447,476.84S3567.44,393,3577.31,356.31" transform="translate(-49 -63.2)"/>
    </g>
  </g>
  <g id="Strawberry">
    <g id="StrawberryRing">
      <g id="circle-7" data-name="circle">
        <path class="cls-1" d="M4247,741.63a326.32,326.32,0,0,1-230.75-557.07A326.32,326.32,0,0,1,4477.7,646.06,324.19,324.19,0,0,1,4247,741.63Z" transform="translate(-49 -63.2)"/>
        <path class="cls-2" d="M4247,107.93a306.3,306.3,0,1,1-119.63,24.14A305.42,305.42,0,0,1,4247,107.93m0-37.9c-190.69,0-345.27,154.58-345.27,345.27S4056.27,760.58,4247,760.58,4592.23,606,4592.23,415.31,4437.65,70,4247,70Z" transform="translate(-49 -63.2)"/>
      </g>
    </g>
    <g id="StrawberryShape">
      <path class="cls-13" d="M4394,418.73s-95.72,218.79-123.07,232.46S4120.47,429,4134.15,411.89s44.44-92.3,129.9-27.35C4264,384.54,4359.77,292.24,4394,418.73Z" transform="translate(-49 -63.2)"/>
      <polyline class="cls-13" points="4228.72 287.16 4269.75 184.6 4215.05 235.88 4167.19 143.58 4191.12 246.13 4085.14 215.37 4177.45 283.74"/>
    </g>
    <g id="strawberrySpots">
      <circle class="cls-14" cx="4151.81" cy="343.56" r="11.96"/>
      <circle class="cls-14" cx="4257.78" cy="346.98" r="11.96"/>
      <circle class="cls-14" cx="4213.34" cy="401.68" r="11.96"/>
      <circle class="cls-14" cx="4257.78" cy="452.96" r="11.96"/>
      <circle class="cls-14" cx="4182.57" cy="473.47" r="11.96"/>
    </g>
  </g>
  <g id="Blueberry">
    <g id="BlueberryRing">
      <g id="circle-8" data-name="circle">
        <path class="cls-1" d="M5026.38,741.63a326.32,326.32,0,0,1-230.75-557.07,326.32,326.32,0,0,1,461.49,461.49A324.19,324.19,0,0,1,5026.38,741.63Z" transform="translate(-49 -63.2)"/>
        <path class="cls-2" d="M5026.38,107.93a306.3,306.3,0,1,1-119.63,24.14,305.42,305.42,0,0,1,119.63-24.14m0-37.9c-190.69,0-345.27,154.58-345.27,345.27s154.58,345.27,345.27,345.27S5371.65,606,5371.65,415.31,5217.07,70,5026.38,70Z" transform="translate(-49 -63.2)"/>
      </g>
    </g>
    <g id="BlueberryShape">
      <circle class="cls-15" cx="5047.46" cy="411.93" r="95.72"/>
      <circle class="cls-15" cx="4917.56" cy="418.77" r="95.72"/>
      <path class="cls-15" d="M5041.77,365.74s65-123.07,140.16-119.65C5181.93,246.09,5243.46,365.74,5041.77,365.74Z" transform="translate(-49 -63.2)"/>
      <path class="cls-15" d="M5038.35,365.74s-88.88-112.81-126.49-112.81S4836.65,399.93,5038.35,365.74Z" transform="translate(-49 -63.2)"/>
    </g>
    <g id="BlueberryShine">
      <path class="cls-15" d="M4959.72,430.69s-51.28,71.79-20.51,95.72" transform="translate(-49 -63.2)"/>
      <path class="cls-15" d="M5117,454.62s20.51,61.53,13.67,75.21" transform="translate(-49 -63.2)"/>
    </g>
  </g>
  <g id="Coconut">
    <g id="coconutRing">
      <g id="circle-9" data-name="circle">
        <path class="cls-1" d="M5795.55,745.05A326.32,326.32,0,0,1,5564.81,188,326.32,326.32,0,0,1,6026.3,649.47,324.19,324.19,0,0,1,5795.55,745.05Z" transform="translate(-49 -63.2)"/>
        <path class="cls-2" d="M5795.55,111.35a306.3,306.3,0,1,1-119.63,24.14,305.42,305.42,0,0,1,119.63-24.14m0-37.9c-190.69,0-345.27,154.58-345.27,345.27S5604.86,764,5795.55,764s345.27-154.58,345.27-345.27S5986.24,73.46,5795.55,73.46Z" transform="translate(-49 -63.2)"/>
      </g>
    </g>
    <g id="CoconutShape">
      <circle class="cls-16" cx="5755.1" cy="360.66" r="191.44"/>
    </g>
    <g id="coconutSpots">
      <circle class="cls-17" cx="5710.66" cy="258.1" r="29.06"/>
      <circle class="cls-17" cx="5727.75" cy="333.31" r="29.06"/>
      <circle class="cls-17" cx="5652.54" cy="312.8" r="29.06"/>
    </g>
  </g>
  <g id="Peach">
    <g id="PeachRing">
      <g id="circle-10" data-name="circle">
        <path class="cls-1" d="M6557.88,734.8a326.32,326.32,0,0,1-230.75-557.07,326.32,326.32,0,0,1,461.49,461.49A324.19,324.19,0,0,1,6557.88,734.8Z" transform="translate(-49 -63.2)"/>
        <path class="cls-2" d="M6557.88,101.1a306.3,306.3,0,1,1-119.63,24.14,305.42,305.42,0,0,1,119.63-24.14m0-37.9c-190.69,0-345.27,154.58-345.27,345.27s154.58,345.27,345.27,345.27,345.27-154.58,345.27-345.27S6748.57,63.2,6557.88,63.2Z" transform="translate(-49 -63.2)"/>
      </g>
    </g>
    <g id="PeachShape">
      <ellipse class="cls-18" cx="6513.15" cy="385.09" rx="202.56" ry="173.84"/>
      <path class="cls-18" d="M6562.92,314.8s-93.13,161.43-12.42,276.29" transform="translate(-49 -63.2)"/>
      <path class="cls-18" d="M6606.38,262s93.13-65.19,127.28-43.46S6693.31,302.39,6606.38,262Z" transform="translate(-49 -63.2)"/>
      <path class="cls-18" d="M6609.49,265.13s-62.09-71.4-102.44-65.19-52.77,74.5,90,65.19" transform="translate(-49 -63.2)"/>
    </g>
    <g id="PeachFuzz">
      <line class="cls-18" x1="6340.08" y1="239.18" x2="6380.44" y2="273.33"/>
      <line class="cls-18" x1="6380.44" y1="326.11" x2="6293.52" y2="326.11"/>
      <line class="cls-18" x1="6371.13" y1="388.19" x2="6293.52" y2="416.13"/>
      <line class="cls-18" x1="6408.38" y1="462.7" x2="6358.71" y2="515.47"/>
      <line class="cls-18" x1="6625.68" y1="313.69" x2="6715.71" y2="285.75"/>
      <path class="cls-18" d="M6659.16,463.81c34.15,6.21,59,24.83,59,24.83" transform="translate(-49 -63.2)"/>
    </g>
  </g>
  <g id="Pineapple">
    <g id="PineappleRing">
      <g id="circle-11" data-name="circle">
        <path class="cls-1" d="M7340.73,745.05A326.32,326.32,0,0,1,7110,188a326.32,326.32,0,0,1,461.49,461.49A324.19,324.19,0,0,1,7340.73,745.05Z" transform="translate(-49 -63.2)"/>
        <path class="cls-2" d="M7340.73,111.35a306.3,306.3,0,1,1-119.63,24.14,305.42,305.42,0,0,1,119.63-24.14m0-37.9C7150,73.46,6995.46,228,6995.46,418.73S7150,764,7340.73,764,7686,609.42,7686,418.73,7531.42,73.46,7340.73,73.46Z" transform="translate(-49 -63.2)"/>
      </g>
    </g>
    <g id="PineappleShape">
      <ellipse class="cls-19" cx="7301.98" cy="434.15" rx="109.39" ry="177.76"/>
      <polyline class="cls-20" points="7338.19 252.97 7404.54 161.16 7316.86 207.06 7305.01 92.3 7283.69 191.76 7196.01 117.8 7278.08 244.81"/>
    </g>
    <g id="PineappleLines">
      <polyline class="cls-20" points="7375.48 326.47 7337.88 353.82 7252.41 353.82 7215.14 326.11"/>
      <polyline class="cls-20" points="7392.57 401.68 7348.13 432.44 7245.58 432.44 7197.72 401.68"/>
      <polyline class="cls-20" points="7404.54 482.01 7351.55 507.65 7262.67 507.65 7197.72 488.05"/>
      <line class="cls-20" x1="7375.48" y1="558.93" x2="7232.17" y2="571.01"/>
      <line class="cls-20" x1="7279.76" y1="271.77" x2="7269.51" y2="610.21"/>
      <path class="cls-20" d="M7383.46,335c0,3.42,18.56,319.64,18.56,319.64" transform="translate(-49 -63.2)"/>
    </g>
  </g>
</svg>
